<?xml version="1.0" standalone="no"?>
<!DOCTYPE svg PUBLIC "-//W3C//DTD SVG 20010904//EN"
 "http://www.w3.org/TR/2001/REC-SVG-20010904/DTD/svg10.dtd">
<svg version="1.0" xmlns="http://www.w3.org/2000/svg"
 width="150.000000pt" height="150.000000pt" viewBox="0 0 150.000000 150.000000"
 preserveAspectRatio="xMidYMid meet">

<g transform="translate(0.000000,150.000000) scale(0.100000,-0.100000)"
fill="#000000" stroke="none">
<path d="M0 750 l0 -750 750 0 750 0 0 750 0 750 -750 0 -750 0 0 -750z m709
152 c1 -405 -1 -453 -15 -459 -10 -4 -43 13 -87 44 l-72 50 -3 101 c-2 91 -5
102 -21 102 -10 0 -30 -11 -45 -25 -25 -23 -26 -29 -26 -119 l0 -95 82 -63
c45 -35 83 -67 84 -73 2 -5 -27 -32 -63 -59 l-66 -48 -101 69 -101 69 -3 259
c-1 153 2 263 7 268 6 6 46 -16 107 -59 129 -91 125 -89 135 -73 5 8 9 120 9
250 l0 236 83 55 c68 46 83 52 89 39 4 -9 7 -220 7 -469z m206 414 l60 -42 3
-247 c2 -178 6 -247 14 -247 6 0 59 30 116 68 58 37 111 71 119 75 11 7 13
-33 13 -220 l0 -229 -76 -58 c-44 -34 -79 -55 -85 -49 -4 4 -10 80 -11 168
l-3 159 -34 23 c-19 13 -38 23 -42 23 -5 0 -9 -103 -9 -228 0 -205 -2 -230
-17 -244 -49 -43 -239 -168 -255 -168 -16 0 -138 76 -138 85 0 2 49 40 109 84
60 45 112 89 115 97 3 9 6 243 6 520 l0 505 28 -16 c15 -9 54 -35 87 -59z"/>
</g>
</svg>
