<?xml version="1.0" standalone="no"?>
<!DOCTYPE svg PUBLIC "-//W3C//DTD SVG 20010904//EN"
 "http://www.w3.org/TR/2001/REC-SVG-20010904/DTD/svg10.dtd">
<svg version="1.0" xmlns="http://www.w3.org/2000/svg"
 width="150.000000pt" height="150.000000pt" viewBox="0 0 150.000000 150.000000"
 preserveAspectRatio="xMidYMid meet">

<g transform="translate(0.000000,150.000000) scale(0.100000,-0.100000)"
fill="#000000" stroke="none">
<path d="M613 1331 l-83 -56 0 -235 c0 -129 -4 -241 -9 -249 -10 -16 -5 -19
-134 72 -62 44 -102 66 -108 60 -5 -5 -8 -116 -7 -268 l3 -259 101 -69 101
-69 66 48 c36 27 65 54 63 59 -1 6 -39 38 -84 73 l-82 63 0 99 c0 97 0 99 29
119 55 40 61 32 61 -79 l0 -99 75 -51 c41 -27 78 -50 83 -50 12 0 23 481 16
735 -3 115 -6 211 -7 211 -1 1 -39 -23 -84 -55z"/>
<path d="M800 886 c0 -277 -3 -511 -6 -520 -3 -9 -53 -50 -110 -93 -57 -42
-104 -82 -104 -88 0 -15 105 -85 127 -85 11 0 75 39 144 88 l124 88 3 232 c2
169 6 232 14 232 6 0 27 -10 45 -22 l33 -23 0 -162 c0 -97 4 -164 10 -168 5
-3 44 20 85 52 l75 57 0 229 c0 187 -2 227 -13 220 -8 -4 -61 -38 -119 -75
-57 -38 -110 -68 -116 -68 -8 0 -12 69 -14 247 l-3 247 -60 42 c-33 24 -72 50
-87 59 l-28 16 0 -505z"/>
</g>
</svg>
